<!DOCTYPE svg PUBLIC "-//W3C//DTD SVG 20010904//EN" "http://www.w3.org/TR/2001/REC-SVG-20010904/DTD/svg10.dtd">
<svg version="1.0" xmlns="http://www.w3.org/2000/svg" width="499px" height="498px" viewBox="0 0 4990 4980" preserveAspectRatio="xMidYMid meet">
<g id="layer1" fill="#454545" stroke="none">
 <path d="M4558 4973 c7 -3 16 -2 19 1 4 3 -2 6 -13 5 -11 0 -14 -3 -6 -6z"/>
 <path d="M1730 2288 c-11 -18 -27 -53 -36 -78 -36 -99 -67 -152 -99 -172 -32 -18 -33 -21 -41 -106 -4 -48 -8 -177 -8 -287 -1 -199 -1 -200 30 -285 65 -182 184 -304 344 -351 25 -7 64 -28 87 -45 57 -43 161 -92 252 -117 105 -28 376 -30 499 -4 175 39 345 110 450 188 179 135 273 409 271 789 -1 85 -4 166 -8 180 -4 14 -23 32 -45 45 -45 23 -46 24 -81 126 -31 88 -63 146 -74 133 -4 -5 -15 -51 -25 -103 -9 -51 -28 -123 -42 -159 -24 -64 -83 -167 -90 -159 -2 2 0 28 6 57 14 73 13 135 -3 148 -13 11 -99 -49 -290 -206 -120 -98 -134 -104 -91 -41 38 57 69 148 55 162 -14 14 -355 -245 -454 -344 -63 -64 -92 -87 -105 -82 -72 25 -286 137 -321 168 -88 80 -131 216 -135 430 -3 150 -11 170 -46 113z"/>
 </g>
<g id="layer2" fill="#865321" stroke="none">
 <path d="M2366 4830 c-448 -251 -762 -582 -890 -939 -28 -77 -61 -245 -52 -260 8 -12 132 -45 148 -38 8 2 19 35 26 74 66 387 342 741 758 973 l108 60 75 -41 c430 -232 756 -596 857 -959 15 -52 30 -99 34 -103 10 -11 141 25 147 41 3 7 -2 42 -11 79 -87 344 -369 693 -796 985 -116 79 -283 178 -302 178 -7 0 -53 -22 -102 -50z"/>
 </g>
<g id="layer3" fill="#587d38" stroke="none">
 <path d="M4555 4968 c-2 -7 -20 -86 -40 -174 -98 -447 -216 -775 -338 -940 -71 -96 -80 -101 -328 -150 -121 -24 -263 -55 -317 -69 -91 -25 -101 -31 -172 -94 -41 -37 -94 -81 -117 -99 -23 -18 -51 -48 -62 -66 -11 -18 -32 -38 -46 -44 -25 -12 -25 -12 -25 -149 l0 -136 51 -106 c28 -58 55 -115 59 -126 4 -11 15 -36 23 -55 8 -19 23 -62 32 -95 24 -82 27 -88 68 -107 37 -18 107 -108 107 -138 0 -9 4 -20 9 -26 19 -19 41 -130 41 -210 0 -93 -13 -140 -40 -147 -17 -4 -18 -9 -8 -43 15 -54 4 -399 -16 -493 -9 -40 -13 -78 -9 -84 3 -5 356 341 784 769 l779 779 0 1007 0 1008 -215 0 c-164 0 -217 -3 -220 -12z"/>
 <path d="M1576 1361 c-4 -5 -2 -12 3 -15 5 -4 12 -2 15 3 4 5 2 12 -3 15 -5 4 -12 2 -15 -3z"/>
 <path d="M1596 1311 c-4 -5 -2 -12 3 -15 5 -4 12 -2 15 3 4 5 2 12 -3 15 -5 4 -12 2 -15 -3z"/>
 <path d="M3366 1271 c-4 -5 -2 -12 3 -15 5 -4 12 -2 15 3 4 5 2 12 -3 15 -5 4 -12 2 -15 -3z"/>
 <path d="M3286 1131 c-4 -5 -2 -12 3 -15 5 -4 12 -2 15 3 4 5 2 12 -3 15 -5 4 -12 2 -15 -3z"/>
 <path d="M3206 1051 c-4 -5 -2 -12 3 -15 5 -4 12 -2 15 3 4 5 2 12 -3 15 -5 4 -12 2 -15 -3z"/>
 <path d="M1886 1031 c-4 -5 -2 -12 3 -15 5 -4 12 -2 15 3 4 5 2 12 -3 15 -5 4 -12 2 -15 -3z"/>
 <path d="M3096 981 c-4 -5 -2 -12 3 -15 5 -4 12 -2 15 3 4 5 2 12 -3 15 -5 4 -12 2 -15 -3z"/>
 <path d="M3036 951 c-4 -5 -2 -12 3 -15 5 -4 12 -2 15 3 4 5 2 12 -3 15 -5 4 -12 2 -15 -3z"/>
 <path d="M2056 941 c-4 -5 -2 -12 3 -15 5 -4 12 -2 15 3 4 5 2 12 -3 15 -5 4 -12 2 -15 -3z"/>
 <path d="M2116 911 c-4 -5 -2 -12 3 -15 5 -4 12 -2 15 3 4 5 2 12 -3 15 -5 4 -12 2 -15 -3z"/>
 <path d="M2936 913 c-4 -5 -12 -9 -17 -9 -5 -1 -11 -3 -14 -4 -3 -1 -9 -3 -15 -4 -5 0 -10 -4 -10 -8 0 -5 0 -11 0 -14 0 -4 7 -1 15 6 8 7 15 9 15 5 0 -4 6 -3 13 3 6 6 15 11 20 11 8 1 11 11 5 17 -3 2 -8 1 -12 -3z"/>
 </g>
<g id="layer4" fill="#a8662a" stroke="none">
 <path d="M414 4953 c119 -587 238 -935 380 -1114 80 -100 96 -106 382 -164 141 -28 257 -49 259 -46 2 3 10 47 19 97 51 299 245 594 551 842 133 108 426 292 464 292 18 0 188 -100 301 -178 421 -288 692 -626 776 -968 9 -38 20 -72 24 -77 3 -4 118 15 254 42 208 42 253 54 282 76 123 94 252 360 354 731 40 149 110 451 110 479 0 13 -213 15 -2081 15 l-2081 0 6 -27z"/>
 </g>
<g id="layer5" fill="#6d9842" stroke="none">
 <path d="M1505 3611 c-6 -11 13 -26 22 -17 3 3 12 1 19 -5 7 -6 18 -8 24 -4 14 9 1 28 -16 21 -7 -3 -16 -1 -19 4 -8 13 -22 13 -30 1z"/>
 <path d="M3416 3591 c-4 -5 -2 -12 3 -15 5 -4 12 -2 15 3 4 5 2 12 -3 15 -5 4 -12 2 -15 -3z"/>
 <path d="M3371 3556 c-13 -13 -18 -26 -13 -30 5 -3 19 5 31 18 13 13 18 26 13 30 -5 3 -19 -5 -31 -18z"/>
 <path d="M3301 3496 c-18 -19 -29 -36 -23 -39 5 -4 23 9 41 27 18 19 29 36 23 39 -5 4 -23 -9 -41 -27z"/>
 <path d="M3146 3345 c-16 -13 -24 -25 -18 -29 6 -3 23 4 38 17 36 31 18 42 -20 12z"/>
 <path d="M3107 3053 c-4 -6 1 -21 11 -34 12 -13 21 -18 25 -12 4 6 -1 21 -11 34 -12 13 -21 18 -25 12z"/>
 <path d="M4197 2192 c-434 -434 -787 -792 -786 -798 1 -5 0 -12 -1 -16 -1 -5 -4 -12 -5 -18 -1 -5 -4 -12 -5 -15 -1 -3 -3 -8 -4 -12 -1 -5 -8 -19 -16 -33 -7 -14 -13 -27 -13 -30 1 -3 -8 -22 -18 -42 -11 -22 -15 -39 -9 -43 5 -3 18 12 30 35 11 22 18 40 15 40 -3 0 2 11 11 25 9 14 13 25 9 25 -4 0 -2 7 5 15 7 8 9 15 5 15 -4 0 -2 6 4 13 6 8 8 17 4 21 -4 3 137 150 313 326 l319 320 467 -467 468 -468 0 948 c0 521 -1 947 -3 947 -1 0 -357 -355 -790 -788z"/>
 <path d="M3198 2884 c-9 -14 11 -56 22 -49 13 8 13 18 -3 40 -8 10 -16 14 -19 9z"/>
 <path d="M3225 2810 c-4 -6 -3 -16 3 -22 6 -6 12 -6 17 2 4 6 3 16 -3 22 -6 6 -12 6 -17 -2z"/>
 <path d="M3246 2762 c-3 -5 3 -36 14 -68 31 -91 30 -88 40 -78 7 7 2 33 -11 75 -23 69 -33 86 -43 71z"/>
 <path d="M3356 2562 c-3 -5 8 -21 23 -36 16 -15 31 -23 35 -18 3 5 -8 21 -23 36 -16 15 -31 23 -35 18z"/>
 <path d="M3428 2474 c-10 -10 21 -66 32 -59 6 4 10 10 10 14 0 15 -35 53 -42 45z"/>
 <path d="M3466 2392 c-3 -6 -1 -23 4 -39 6 -15 13 -34 16 -42 3 -9 8 -11 14 -5 7 7 6 22 -1 45 -14 41 -25 54 -33 41z"/>
 <path d="M3495 2280 c-4 -6 -3 -16 3 -22 6 -6 12 -6 17 2 4 6 3 16 -3 22 -6 6 -12 6 -17 -2z"/>
 <path d="M3490 2093 c-6 -15 -14 -36 -20 -45 -15 -27 7 -32 24 -6 21 34 28 65 16 73 -5 3 -15 -6 -20 -22z"/>
 <path d="M1555 1997 c-9 -22 -2 -62 10 -60 6 1 11 14 13 29 4 32 -14 56 -23 31z"/>
 <path d="M1545 1848 c-9 -24 -1 -113 10 -111 14 4 19 103 6 116 -7 7 -12 5 -16 -5z"/>
 <path d="M1534 1607 c-7 -20 -2 -47 11 -50 14 -3 19 43 6 56 -7 7 -12 6 -17 -6z"/>
 <path d="M1544 1486 c-4 -10 -2 -22 4 -28 8 -8 13 -7 18 6 4 10 2 22 -4 28 -8 8 -13 7 -18 -6z"/>
 <path d="M1555 1430 c-4 -6 -2 -17 4 -24 6 -7 8 -16 4 -19 -3 -4 0 -13 7 -22 7 -8 9 -15 5 -15 -4 0 0 -11 9 -25 9 -14 14 -25 11 -25 -3 0 -1 -9 5 -20 6 -11 16 -18 21 -14 6 4 4 15 -6 30 -8 13 -13 24 -10 24 3 0 0 10 -7 23 -7 12 -11 27 -10 34 1 6 -2 14 -7 18 -6 3 -8 12 -5 19 7 17 -12 30 -21 16z"/>
 <path d="M1627 1253 c-4 -6 0 -18 7 -28 8 -11 16 -14 19 -8 4 6 0 18 -7 28 -8 11 -16 14 -19 8z"/>
 <path d="M1656 1202 c-3 -6 1 -15 8 -21 8 -7 17 -8 20 -3 3 6 -1 15 -8 21 -8 7 -17 8 -20 3z"/>
 <path d="M3316 1171 c-4 -5 -2 -12 3 -15 5 -4 12 -2 15 3 4 5 2 12 -3 15 -5 4 -12 2 -15 -3z"/>
 <path d="M3296 1141 c-4 -5 -2 -12 3 -15 5 -4 12 -2 15 3 4 5 2 12 -3 15 -5 4 -12 2 -15 -3z"/>
 <path d="M1756 1102 c-3 -6 1 -15 8 -21 8 -7 17 -8 20 -3 3 6 -1 15 -8 21 -8 7 -17 8 -20 3z"/>
 <path d="M3256 1091 c-10 -11 -13 -22 -8 -25 5 -3 17 3 26 13 10 11 13 22 8 25 -5 3 -17 -3 -26 -13z"/>
 <path d="M1795 1070 c-3 -5 17 -21 45 -35 27 -14 50 -22 50 -19 0 4 6 1 14 -5 8 -6 18 -11 22 -9 5 1 19 -3 31 -10 12 -7 24 -8 27 -3 7 11 -22 36 -31 28 -3 -4 -12 -2 -19 3 -6 6 -16 10 -20 8 -5 -1 -32 10 -61 25 -29 15 -54 23 -58 17z"/>
 <path d="M3196 1041 c-4 -5 -2 -12 3 -15 5 -4 12 -2 15 3 4 5 2 12 -3 15 -5 4 -12 2 -15 -3z"/>
 <path d="M3166 1021 c-4 -5 -2 -12 3 -15 5 -4 12 -2 15 3 4 5 2 12 -3 15 -5 4 -12 2 -15 -3z"/>
 <path d="M3125 996 c-11 -8 -14 -16 -8 -19 6 -4 18 0 28 7 11 8 14 16 8 19 -6 4 -18 0 -28 -7z"/>
 <path d="M2006 971 c-4 -5 -2 -12 3 -15 5 -4 12 -2 15 3 4 5 2 12 -3 15 -5 4 -12 2 -15 -3z"/>
 <path d="M3075 966 c-11 -8 -14 -16 -8 -19 6 -4 18 0 28 7 11 8 14 16 8 19 -6 4 -18 0 -28 -7z"/>
 <path d="M2036 951 c-4 -5 -2 -12 3 -15 5 -4 12 -2 15 3 4 5 2 12 -3 15 -5 4 -12 2 -15 -3z"/>
 <path d="M3002 934 c-12 -8 -22 -12 -22 -9 0 3 -10 0 -22 -7 -13 -7 -26 -13 -30 -14 -5 -1 -10 -3 -13 -4 -3 -1 -9 -3 -15 -4 -5 0 -10 -4 -10 -8 0 -5 0 -11 0 -14 0 -4 7 -1 15 6 8 7 15 9 15 5 0 -4 7 -2 15 5 8 7 15 9 15 6 0 -4 10 -1 23 6 12 6 28 13 36 14 20 4 35 21 24 27 -6 4 -19 -1 -31 -9z"/>
 <path d="M2086 921 c-4 -5 3 -15 14 -21 11 -6 20 -8 20 -5 0 3 11 -2 25 -11 14 -9 25 -13 25 -9 0 4 7 2 15 -5 8 -7 15 -9 15 -5 0 4 6 2 14 -4 10 -8 16 -9 21 -1 3 5 4 11 1 11 -16 4 -26 7 -31 9 -3 1 -8 3 -12 4 -5 1 -18 7 -30 14 -13 7 -23 10 -23 7 0 -3 -11 2 -24 10 -15 10 -26 12 -30 6z"/>
 <path d="M2846 881 c-4 -6 -13 -8 -20 -5 -17 7 -30 -12 -16 -21 6 -4 16 -2 23 3 7 6 15 11 20 11 8 1 11 11 4 17 -3 3 -8 1 -11 -5z"/>
 <path d="M2256 861 c-4 -5 -2 -12 3 -15 5 -4 12 -2 15 3 4 5 2 12 -3 15 -5 4 -12 2 -15 -3z"/>
 <path d="M2755 861 c-7 -12 12 -24 25 -16 11 7 4 25 -10 25 -5 0 -11 -4 -15 -9z"/>
 <path d="M2295 851 c-7 -12 12 -24 25 -16 11 7 4 25 -10 25 -5 0 -11 -4 -15 -9z"/>
 <path d="M2705 851 c-7 -12 12 -24 25 -16 11 7 4 25 -10 25 -5 0 -11 -4 -15 -9z"/>
 <path d="M2355 840 c-8 -12 20 -24 35 -15 6 3 8 11 5 16 -8 12 -32 12 -40 -1z"/>
 <path d="M2625 840 c-8 -13 20 -24 41 -16 20 8 9 26 -16 26 -10 0 -22 -5 -25 -10z"/>
 <path d="M2465 830 c-3 -5 0 -13 8 -16 23 -8 82 0 82 11 0 14 -82 19 -90 5z"/>
 </g>
<g id="layer6" fill="#7dac4a" stroke="none">
 <path d="M0 4787 l0 -192 893 -893 c858 -858 894 -892 910 -874 9 10 17 24 17 31 0 6 12 35 26 63 15 29 28 73 29 98 2 25 6 102 10 173 l7 127 -31 11 c-17 6 -31 14 -31 18 0 7 -54 62 -209 213 -25 24 -48 42 -53 41 -4 -2 -36 7 -69 18 -34 12 -178 45 -319 73 -291 59 -303 64 -377 161 -135 179 -258 539 -363 1068 l-11 57 -215 0 -214 0 0 -193z"/>
 <path d="M3111 3326 c-15 -17 -11 -266 4 -266 11 0 24 269 14 276 -4 2 -12 -2 -18 -10z"/>
 <path d="M3136 3001 c-4 -5 -2 -12 3 -15 5 -4 12 -2 15 3 4 5 2 12 -3 15 -5 4 -12 2 -15 -3z"/>
 <path d="M3186 2901 c-4 -5 -2 -12 3 -15 5 -4 12 -2 15 3 4 5 2 12 -3 15 -5 4 -12 2 -15 -3z"/>
 <path d="M3406 2502 c-3 -6 1 -15 8 -21 8 -7 17 -8 20 -3 3 6 -1 15 -8 21 -8 7 -17 8 -20 3z"/>
 <path d="M3738 1723 l-317 -318 -31 -85 -30 -85 617 -617 618 -618 197 0 198 0 0 553 0 552 -468 468 -467 467 -317 -317z"/>
 <path d="M1546 1461 c-4 -5 -2 -12 3 -15 5 -4 12 -2 15 3 4 5 2 12 -3 15 -5 4 -12 2 -15 -3z"/>
 <path d="M1586 1321 c-4 -5 -2 -12 3 -15 5 -4 12 -2 15 3 4 5 2 12 -3 15 -5 4 -12 2 -15 -3z"/>
 <path d="M1616 1261 c-4 -5 -2 -12 3 -15 5 -4 12 -2 15 3 4 5 2 12 -3 15 -5 4 -12 2 -15 -3z"/>
 <path d="M3326 1181 c-4 -5 -2 -12 3 -15 5 -4 12 -2 15 3 4 5 2 12 -3 15 -5 4 -12 2 -15 -3z"/>
 <path d="M1696 1152 c-3 -5 3 -17 13 -26 11 -10 22 -13 25 -8 3 5 -3 17 -13 26 -11 10 -22 13 -25 8z"/>
 <path d="M3306 1151 c-4 -5 -2 -12 3 -15 5 -4 12 -2 15 3 4 5 2 12 -3 15 -5 4 -12 2 -15 -3z"/>
 <path d="M3276 1111 c-4 -5 -2 -12 3 -15 5 -4 12 -2 15 3 4 5 2 12 -3 15 -5 4 -12 2 -15 -3z"/>
 <path d="M3231 1066 c-7 -8 -8 -17 -3 -20 6 -3 15 1 21 8 7 8 8 17 3 20 -6 3 -15 -1 -21 -8z"/>
 <path d="M3186 1031 c-4 -5 -2 -12 3 -15 5 -4 12 -2 15 3 4 5 2 12 -3 15 -5 4 -12 2 -15 -3z"/>
 <path d="M3156 1011 c-4 -5 -2 -12 3 -15 5 -4 12 -2 15 3 4 5 2 12 -3 15 -5 4 -12 2 -15 -3z"/>
 <path d="M1976 991 c-4 -5 -2 -12 3 -15 5 -4 12 -2 15 3 4 5 2 12 -3 15 -5 4 -12 2 -15 -3z"/>
 <path d="M3115 986 c-11 -8 -14 -16 -8 -19 6 -4 18 0 28 7 11 8 14 16 8 19 -6 4 -18 0 -28 -7z"/>
 <path d="M2016 961 c-4 -5 -2 -12 3 -15 5 -4 12 -2 15 3 4 5 2 12 -3 15 -5 4 -12 2 -15 -3z"/>
 <path d="M3035 946 c-11 -8 -14 -16 -8 -19 6 -4 18 0 28 7 11 8 14 16 8 19 -6 4 -18 0 -28 -7z"/>
 <path d="M2066 931 c-4 -5 -2 -12 3 -15 5 -4 12 -2 15 3 4 5 2 12 -3 15 -5 4 -12 2 -15 -3z"/>
 <path d="M2976 921 c-4 -5 -2 -12 3 -15 5 -4 12 -2 15 3 4 5 2 12 -3 15 -5 4 -12 2 -15 -3z"/>
 <path d="M2126 901 c-4 -5 -2 -12 3 -15 5 -4 12 -2 15 3 4 5 2 12 -3 15 -5 4 -12 2 -15 -3z"/>
 <path d="M2926 901 c-4 -5 -2 -12 3 -15 5 -4 12 -2 15 3 4 5 2 12 -3 15 -5 4 -12 2 -15 -3z"/>
 <path d="M2176 881 c-4 -5 -2 -12 3 -15 5 -4 12 -2 15 3 4 5 2 12 -3 15 -5 4 -12 2 -15 -3z"/>
 <path d="M2856 881 c-4 -5 -2 -12 3 -15 5 -4 12 -2 15 3 4 5 2 12 -3 15 -5 4 -12 2 -15 -3z"/>
 <path d="M2246 861 c-4 -5 -2 -12 3 -15 5 -4 12 -2 15 3 4 5 2 12 -3 15 -5 4 -12 2 -15 -3z"/>
 <path d="M2776 861 c-4 -5 -2 -12 3 -15 5 -4 12 -2 15 3 4 5 2 12 -3 15 -5 4 -12 2 -15 -3z"/>
 <path d="M2286 851 c-4 -5 -2 -12 3 -15 5 -4 12 -2 15 3 4 5 2 12 -3 15 -5 4 -12 2 -15 -3z"/>
 <path d="M2726 851 c-4 -5 -2 -12 3 -15 5 -4 12 -2 15 3 4 5 2 12 -3 15 -5 4 -12 2 -15 -3z"/>
 <path d="M2346 841 c-4 -5 -2 -12 3 -15 5 -4 12 -2 15 3 4 5 2 12 -3 15 -5 4 -12 2 -15 -3z"/>
 </g>
<g id="layer7" fill="#d95967" stroke="none">
 <path d="M2385 4676 c-74 -40 -80 -46 -77 -72 1 -16 9 -102 17 -191 15 -158 15 -162 -5 -196 -19 -32 -26 -35 -98 -47 -120 -19 -120 -19 -76 -98 20 -37 53 -92 73 -122 20 -30 41 -64 47 -75 6 -11 28 -23 50 -28 59 -12 313 -3 349 13 17 7 33 13 37 12 13 -3 92 105 129 173 33 64 33 66 15 80 -10 8 -52 22 -92 31 -72 16 -74 17 -84 53 -8 29 -4 72 18 200 l28 164 -54 34 c-30 19 -86 52 -126 74 l-71 38 -80 -43z"/>
 </g>
<g id="layer8" fill="#8abe50" stroke="none">
 <path d="M0 2307 l0 -2307 2307 0 2308 0 -620 620 c-341 341 -623 620 -627 620 -4 0 -15 -15 -24 -32 -36 -72 -95 -137 -167 -185 -197 -132 -512 -207 -770 -183 -164 16 -274 53 -395 135 -38 25 -75 45 -84 45 -8 0 -47 16 -85 35 -125 63 -216 177 -261 328 -21 74 -24 99 -23 252 1 94 5 217 9 275 7 99 6 107 -14 138 -79 116 4 441 129 507 36 19 40 27 78 140 22 66 41 122 42 125 1 3 -2 6 -8 8 -5 1 -412 404 -902 894 l-893 893 0 -2308z"/>
 <path d="M1566 3591 c-4 -5 -2 -12 3 -15 5 -4 12 -2 15 3 4 5 2 12 -3 15 -5 4 -12 2 -15 -3z"/>
 <path d="M1606 3562 c-3 -5 8 -21 23 -36 16 -15 31 -23 35 -18 3 5 -8 21 -23 36 -16 15 -31 23 -35 18z"/>
 <path d="M1707 3473 c-4 -5 16 -31 42 -57 27 -26 51 -44 54 -39 4 5 -16 31 -42 57 -27 26 -51 44 -54 39z"/>
 <path d="M1815 3350 c-9 -14 44 -45 56 -33 7 7 1 15 -20 26 -17 8 -33 11 -36 7z"/>
 <path d="M1855 3040 c-4 -6 -3 -16 3 -22 6 -6 12 -6 17 2 4 6 3 16 -3 22 -6 6 -12 6 -17 -2z"/>
 <path d="M1825 2919 c-19 -36 -23 -55 -16 -62 7 -7 15 1 27 29 9 21 20 47 25 56 6 10 5 19 -1 23 -5 3 -21 -17 -35 -46z"/>
 </g>
<g id="layer9" fill="#feeabb" stroke="none">
 <path d="M2428 3854 c-4 -3 -5 -11 -2 -18 8 -21 -49 -64 -135 -100 -153 -64 -310 -168 -371 -247 -41 -51 -48 -89 -55 -297 -3 -92 -8 -181 -10 -198 -3 -17 -27 -80 -53 -141 -27 -61 -59 -147 -73 -192 -13 -45 -30 -81 -36 -81 -24 0 -90 -70 -121 -127 -52 -100 -80 -230 -67 -323 8 -55 41 -113 69 -118 27 -5 92 70 113 130 10 28 29 76 43 105 l25 54 2 -133 c1 -96 7 -154 22 -210 45 -172 105 -238 304 -333 73 -34 140 -65 150 -68 13 -5 43 19 115 91 55 54 172 151 264 219 l166 121 -10 -36 c-14 -51 -34 -88 -79 -149 -75 -101 -24 -72 217 122 61 50 132 105 158 123 l46 33 0 -48 c0 -26 -6 -76 -14 -111 -20 -97 7 -94 74 10 38 58 81 178 101 282 13 70 16 67 60 -58 68 -195 189 -177 189 28 0 75 -21 160 -59 242 -31 66 -92 141 -126 154 -15 6 -30 38 -60 126 -21 66 -65 170 -96 233 l-58 114 0 180 c-1 173 -1 181 -26 222 -50 87 -192 190 -372 271 -110 49 -165 87 -161 112 3 14 -8 17 -62 20 -36 2 -69 0 -72 -4z"/>
 </g>
<g id="layer10" fill="#efe7d5" stroke="none">
 <path d="M2305 4600 c-4 -6 -3 -16 3 -22 6 -6 12 -6 17 2 4 6 3 16 -3 22 -6 6 -12 6 -17 -2z"/>
 <path d="M2695 4560 c-4 -6 -3 -16 3 -22 6 -6 12 -6 17 2 4 6 3 16 -3 22 -6 6 -12 6 -17 -2z"/>
 <path d="M2746 4542 c-3 -6 1 -15 8 -21 8 -7 17 -8 20 -3 3 6 -1 15 -8 21 -8 7 -17 8 -20 3z"/>
 <path d="M2121 4506 c-7 -8 -8 -17 -3 -20 6 -3 15 1 21 8 7 8 8 17 3 20 -6 3 -15 -1 -21 -8z"/>
 <path d="M2685 4500 c-4 -6 -3 -16 3 -22 6 -6 12 -6 17 2 4 6 3 16 -3 22 -6 6 -12 6 -17 -2z"/>
 <path d="M2826 4482 c-3 -6 1 -15 8 -21 8 -7 17 -8 20 -3 3 6 -1 15 -8 21 -8 7 -17 8 -20 3z"/>
 <path d="M2071 4466 c-7 -8 -8 -17 -3 -20 6 -3 15 1 21 8 7 8 8 17 3 20 -6 3 -15 -1 -21 -8z"/>
 <path d="M2675 4440 c-4 -6 -3 -16 3 -22 6 -6 12 -6 17 2 4 6 3 16 -3 22 -6 6 -12 6 -17 -2z"/>
 <path d="M2665 4380 c-4 -6 -3 -16 3 -22 6 -6 12 -6 17 2 4 6 3 16 -3 22 -6 6 -12 6 -17 -2z"/>
 <path d="M2655 4320 c-4 -6 -3 -16 3 -22 6 -6 12 -6 17 2 4 6 3 16 -3 22 -6 6 -12 6 -17 -2z"/>
 <path d="M1801 3946 c-127 -190 -231 -349 -231 -353 0 -5 37 -40 82 -78 44 -39 106 -98 137 -133 72 -82 92 -81 107 4 13 72 43 115 117 172 77 57 199 126 287 162 92 37 162 99 140 125 -15 18 -43 19 -71 3 -17 -11 -22 -10 -30 5 -6 9 -21 17 -34 17 -14 0 -25 6 -25 13 0 6 -16 35 -36 62 -39 55 -105 170 -108 188 -1 7 -9 23 -18 37 -8 14 -26 45 -39 69 -13 25 -29 46 -36 48 -7 3 -113 -147 -242 -341z"/>
 <path d="M2934 4278 c-5 -7 -23 -42 -41 -78 -86 -171 -173 -312 -191 -308 -4 1 -19 -4 -34 -10 -19 -8 -26 -16 -22 -27 8 -19 -27 -21 -56 -3 -16 11 -23 10 -37 -5 -17 -18 -16 -20 28 -60 28 -25 80 -56 128 -76 93 -38 222 -113 288 -167 63 -51 97 -107 103 -168 8 -76 27 -73 118 19 42 43 109 104 149 137 67 56 85 83 66 102 -4 4 -8 15 -8 24 0 10 -8 17 -18 17 -12 0 -86 99 -230 304 -117 168 -217 306 -224 308 -6 2 -15 -2 -19 -9z"/>
 <path d="M2335 4260 c-4 -6 -3 -16 3 -22 6 -6 12 -6 17 2 4 6 3 16 -3 22 -6 6 -12 6 -17 -2z"/>
 <path d="M2644 4255 c-4 -9 -2 -21 4 -27 6 -6 8 -16 6 -23 -7 -16 12 -29 21 -15 3 5 3 16 -2 23 -4 6 -6 19 -5 29 4 22 -17 33 -24 13z"/>
 <path d="M2296 4181 c-4 -5 -2 -12 3 -15 5 -4 12 -2 15 3 4 5 2 12 -3 15 -5 4 -12 2 -15 -3z"/>
 <path d="M1791 4166 c-7 -8 -8 -17 -3 -20 6 -3 15 1 21 8 7 8 8 17 3 20 -6 3 -15 -1 -21 -8z"/>
 <path d="M2155 4161 c-7 -12 12 -24 25 -16 11 7 4 25 -10 25 -5 0 -11 -4 -15 -9z"/>
 <path d="M2755 4151 c-7 -12 12 -24 25 -16 11 7 4 25 -10 25 -5 0 -11 -4 -15 -9z"/>
 <path d="M1731 4076 c-7 -8 -8 -17 -3 -20 6 -3 15 1 21 8 7 8 8 17 3 20 -6 3 -15 -1 -21 -8z"/>
 <path d="M1686 3991 c-4 -5 -2 -12 3 -15 5 -4 12 -2 15 3 4 5 2 12 -3 15 -5 4 -12 2 -15 -3z"/>
 <path d="M3276 3982 c-3 -6 1 -15 8 -21 8 -7 17 -8 20 -3 3 6 -1 15 -8 21 -8 7 -17 8 -20 3z"/>
 <path d="M1645 3910 c-4 -6 -3 -16 3 -22 6 -6 12 -6 17 2 4 6 3 16 -3 22 -6 6 -12 6 -17 -2z"/>
 <path d="M3356 3821 c-4 -5 -2 -12 3 -15 5 -4 12 -2 15 3 4 5 2 12 -3 15 -5 4 -12 2 -15 -3z"/>
 <path d="M3395 3710 c-4 -6 -3 -16 3 -22 6 -6 12 -6 17 2 4 6 3 16 -3 22 -6 6 -12 6 -17 -2z"/>
 </g>
<g id="layer11" fill="#fffffe" stroke="none">
 <path d="M2220 4579 c-41 -28 -83 -59 -92 -68 -9 -9 -32 -27 -50 -41 -86 -67 -278 -270 -278 -296 0 -4 -9 -17 -19 -28 -24 -27 -51 -73 -95 -161 -56 -114 -66 -141 -92 -242 -26 -105 -29 -129 -14 -138 5 -3 110 145 232 329 123 185 225 336 228 336 3 0 20 -29 38 -65 30 -60 41 -71 67 -65 6 1 21 4 35 6 130 16 137 20 164 85 13 31 13 53 0 185 -8 82 -16 162 -17 179 -2 17 -9 31 -17 32 -8 2 -49 -20 -90 -48z"/>
 <path d="M2700 4551 c-5 -11 -12 -37 -15 -58 -3 -21 -8 -49 -10 -63 -7 -40 -15 -87 -20 -121 -2 -18 -6 -33 -8 -36 -2 -2 1 -29 7 -61 l12 -57 44 -8 c25 -4 66 -15 93 -24 26 -8 53 -13 60 -10 7 3 28 39 47 81 19 41 37 75 40 76 3 0 109 -148 235 -330 126 -181 233 -326 237 -322 10 10 -16 129 -38 182 -102 238 -250 436 -459 612 -131 111 -140 118 -151 118 -6 0 -19 9 -29 20 -23 25 -32 25 -45 1z"/>
 <path d="M2680 3879 c-8 -5 -25 -9 -38 -9 -13 0 -32 -5 -43 -11 -16 -8 -18 -13 -8 -25 18 -22 56 -16 90 14 31 27 29 51 -1 31z"/>
 <path d="M2315 3851 c-11 -20 61 -42 78 -24 4 3 2 12 -4 20 -13 15 -65 18 -74 4z"/>
 </g>

</svg>